<?xml version="1.0" encoding="utf-8"?>
<!-- Generator: Adobe Illustrator 25.2.3, SVG Export Plug-In . SVG Version: 6.00 Build 0)  -->
<svg version="1.1" xmlns="http://www.w3.org/2000/svg" xmlns:xlink="http://www.w3.org/1999/xlink" x="0px" y="0px"
	 viewBox="0 0 410.9 100.8" style="enable-background:new 0 0 410.9 100.8;" xml:space="preserve">
<style type="text/css">
	.st0{display:none;}
	.st1{fill:#9E0E37;}
	.st2{display:inline;}
</style>
<g id="Layer_1">
	<path class="st0" d="M94.3,7.6"/>
	<path class="st0" d="M105.7-64.4"/>
	<path class="st0" d="M295.4-3.6"/>
	<g>
		<path d="M22.9,62.7v14.9c0,1.1-0.9,2-2,2h-0.3c-1.1,0-2-0.9-2-2V41.2c0-1.1,0.9-2,2-2h5.1c6.1,0,9,2.6,9,9.3v1.8
			c0,3.6-0.8,5.8-2,7.1c-0.7,0.8-0.7,1.9,0,2.7c1.1,1.2,1.7,3.3,1.7,7c0,2.7,0,7.3,0.2,10.3c0.1,1.1-0.8,2.1-2,2.1h-0.2
			c-1,0-1.9-0.8-2-1.8c-0.3-3.1-0.2-8-0.2-10.3c0-5.2-0.7-6.7-4.7-6.7h-0.5C23.7,60.7,22.9,61.6,22.9,62.7z M22.9,55.1
			c0,1.1,0.9,2,2,2h0.7c3.8,0,4.8-2.2,4.8-6.5v-1.8c0-3.7-1-5.9-5-5.9h-0.5c-1.1,0-2,0.9-2,2V55.1z"/>
		<path class="st1" d="M53.7,39.2H54c1.1,0,2,0.9,2,2v17.5H56c1.6-3.5,2-10.4,8.1-18.3C89.3,8,261.6,6.8,372.3,24.1
			c12.2,1.9-1.9,2.5-5.5,2C270.4,11.3,99.7,12.6,70.3,40.6C64.8,45.9,62,53.4,61.9,56c-0.1,2.6,7.2,21,7.2,21
			c0.4,1.3-0.5,2.6-1.9,2.6h-0.5c-0.8,0-1.6-0.5-1.9-1.4l-4.7-14c-0.6-1.7-2.8-1.8-3.6-0.3l-0.5,1C56,65.2,56,65.5,56,65.9v11.8
			c0,1.1-0.9,2-2,2h-0.3c-1.1,0-2-0.9-2-2V41.2C51.7,40.1,52.6,39.2,53.7,39.2z"/>
		<path d="M84.5,77.6V41.2c0-1.1,0.9-2,2-2h1.7c0.9,0,1.7,0.6,1.9,1.4c2.4,8.4,7.4,27.4,8,30.5h0.1C98,65.7,97.9,60,97.9,53.5V41.2
			c0-1.1,0.9-2,2-2h0.1c1.1,0,2,0.9,2,2v36.4c0,1.1-0.9,2-2,2h-1.5c-0.9,0-1.7-0.6-1.9-1.4c-2.4-8.6-7.6-28.5-8.3-31.5h-0.1
			c0.3,4.9,0.4,11.3,0.4,18.6v12.4c0,1.1-0.9,2-2,2h-0.1C85.4,79.6,84.5,78.7,84.5,77.6z"/>
		<path d="M121.7,43.2h-2.6c-1.1,0-2-0.9-2-2v0c0-1.1,0.9-2,2-2h13.4c1.1,0,2,0.9,2,2v0c0,1.1-0.9,2-2,2h-2.5c-1.1,0-2,0.9-2,2v32.4
			c0,1.1-0.9,2-2,2h-0.3c-1.1,0-2-0.9-2-2V45.2C123.7,44.1,122.8,43.2,121.7,43.2z"/>
		<path d="M173.9,41.2v36.4c0,1.1-0.9,2-2,2h-0.3c-1.1,0-2-0.9-2-2V41.2c0-1.1,0.9-2,2-2h0.3C173,39.2,173.9,40.1,173.9,41.2z"/>
		<path d="M191.9,77.6V41.2c0-1.1,0.9-2,2-2h1.7c0.9,0,1.7,0.6,1.9,1.4c2.4,8.4,7.4,27.4,8,30.5h0.1c-0.2-5.4-0.3-11.1-0.3-17.7
			V41.2c0-1.1,0.9-2,2-2h0.1c1.1,0,2,0.9,2,2v36.4c0,1.1-0.9,2-2,2h-1.5c-0.9,0-1.7-0.6-1.9-1.4c-2.4-8.6-7.6-28.5-8.3-31.5h-0.1
			c0.3,4.9,0.4,11.3,0.4,18.6v12.4c0,1.1-0.9,2-2,2h-0.1C192.8,79.6,191.9,78.7,191.9,77.6z"/>
		<path d="M231.7,78l-6.3-36.4c-0.2-1.2,0.7-2.3,1.9-2.3h0.6c1,0,1.8,0.7,2,1.7l2.4,16.4c0.8,5.6,2,12.5,2.4,16.7h0.1
			c0.3-4,1.6-11,2.4-16.6l2.5-16.6c0.1-1,1-1.7,2-1.7h0.5c1.2,0,2.2,1.1,1.9,2.3L237.7,78c-0.2,0.9-1,1.6-1.9,1.6h-2.1
			C232.7,79.6,231.9,78.9,231.7,78z"/>
		<path d="M271.3,60h-5.1c-1.1,0-2,0.9-2,2v11.6c0,1.1,0.9,2,2,2h6c1.2,0,2.1,1.1,2,2.3l0,0c-0.1,1-1,1.7-2,1.7h-10.3
			c-1.1,0-2-0.9-2-2V41.2c0-1.1,0.9-2,2-2h9.9c1.1,0,2,0.9,2,2v0c0,1.1-0.9,2-2,2h-5.6c-1.1,0-2,0.9-2,2v8.9c0,1.1,0.9,2,2,2h5.1
			c1.1,0,2,0.9,2,2v0C273.3,59.2,272.4,60,271.3,60z"/>
		<path d="M290,77.6V41.2c0-1.1,0.9-2,2-2h1.7c0.9,0,1.7,0.6,1.9,1.4c2.4,8.4,7.4,27.4,8,30.5h0.1c-0.2-5.4-0.3-11.1-0.3-17.7V41.2
			c0-1.1,0.9-2,2-2h0.1c1.1,0,2,0.9,2,2v36.4c0,1.1-0.9,2-2,2h-1.5c-0.9,0-1.7-0.6-1.9-1.4c-2.4-8.6-7.6-28.5-8.3-31.5h-0.1
			c0.3,4.9,0.4,11.3,0.4,18.6v12.4c0,1.1-0.9,2-2,2H292C290.9,79.6,290,78.7,290,77.6z"/>
		<path d="M329.7,41.2v36.4c0,1.1-0.9,2-2,2h-0.3c-1.1,0-2-0.9-2-2V41.2c0-1.1,0.9-2,2-2h0.3C328.9,39.2,329.7,40.1,329.7,41.2z"/>
		<path d="M364.3,49.1v20.3c0,7.1-2.9,10.6-8.9,10.6c-6.2,0-8.5-4-8.5-10.6V49.2c0-6.9,3.1-10.5,8.8-10.5
			C361.7,38.7,364.3,42.8,364.3,49.1z M351.3,48.9v20.9c0,4.5,1.6,6.3,4.4,6.3c2.9,0,4.3-1.8,4.3-6.5V49c0-4.3-1.5-6.3-4.4-6.3
			C352.7,42.6,351.3,44.6,351.3,48.9z"/>
	</g>
</g>
<g id="Layer_2" class="st0">
	<g class="st2">
		<path d="M187,63.5v20.2c0,1.5-1.2,2.7-2.7,2.7h-0.3c-1.5,0-2.7-1.2-2.7-2.7V34.3c0-1.5,1.2-2.7,2.7-2.7h6.7
			c8.1,0,12.1,3.5,12.1,12.6v2.5c0,5-1.1,8-2.8,9.7c-0.9,1-1,2.5,0,3.5c1.6,1.7,2.3,4.5,2.3,9.5c0,3.7,0,9.9,0.2,14
			c0.1,1.6-1.1,2.9-2.7,2.9h-0.2c-1.4,0-2.6-1.1-2.7-2.5c-0.3-4.2-0.3-10.9-0.3-14c0-7.1-1-9.1-6.3-9.1h-0.6
			C188.2,60.8,187,62,187,63.5z M187,53.2c0,1.5,1.2,2.7,2.7,2.7h0.8c5.1,0,6.5-3,6.5-8.9v-2.4c0-5-1.3-8-6.7-8h-0.5
			c-1.5,0-2.7,1.2-2.7,2.7V53.2z"/>
		<path d="M212,31.7h0.3c1.5,0,2.7,1.2,2.7,2.7V58h0.1c2.1-4.8,7.3-16.6,10.8-24.8c0.4-1,1.4-1.6,2.5-1.6h0.3c2,0,3.3,2.1,2.4,3.8
			l-8,16.9c-0.3,0.6-0.3,1.4-0.1,2l9.6,28.4c0.6,1.7-0.7,3.6-2.6,3.6h-0.5c-1.2,0-2.2-0.7-2.6-1.9l-6.1-18.8c-0.8-2.3-3.9-2.5-5-0.4
			l-0.6,1.2c-0.2,0.4-0.3,0.8-0.3,1.2v15.9c0,1.5-1.2,2.7-2.7,2.7H212c-1.5,0-2.7-1.2-2.7-2.7V34.3C209.3,32.9,210.5,31.7,212,31.7z
			"/>
		<path d="M237,83.7V34.3c0-1.5,1.2-2.7,2.7-2.7h2.1c1.2,0,2.3,0.8,2.6,2c3.2,11.4,9.9,37.1,10.7,41.3h0.1c-0.3-7.4-0.4-15.1-0.4-24
			V34.3c0-1.5,1.2-2.7,2.7-2.7h0c1.5,0,2.7,1.2,2.7,2.7v49.3c0,1.5-1.2,2.7-2.7,2.7h-1.9c-1.2,0-2.3-0.8-2.6-2
			c-3.2-11.7-10.1-38.7-11-42.8h-0.1c0.4,6.6,0.5,15.3,0.5,25.2v16.8c0,1.5-1.2,2.7-2.7,2.7h0C238.2,86.4,237,85.2,237,83.7z"/>
		<path d="M270.3,37H267c-1.5,0-2.7-1.2-2.7-2.7v0c0-1.5,1.2-2.7,2.7-2.7h17.7c1.5,0,2.7,1.2,2.7,2.7v0c0,1.5-1.2,2.7-2.7,2.7h-3.3
			c-1.5,0-2.7,1.2-2.7,2.7v43.9c0,1.5-1.2,2.7-2.7,2.7h-0.3c-1.5,0-2.7-1.2-2.7-2.7V39.7C273,38.3,271.8,37,270.3,37z"/>
	</g>
	<g class="st2">
		<path class="st0" d="M36.6,25.1v69.6c0,2.1-1.7,3.8-3.8,3.8h-0.7c-2.1,0-3.8-1.7-3.8-3.8V25.1c0-2.1,1.7-3.8,3.8-3.8h0.7
			C34.9,21.3,36.6,23,36.6,25.1z"/>
		<path class="st0" d="M71.1,94.7V25.1c0-2.1,1.7-3.8,3.8-3.8h3.2c1.7,0,3.2,1.1,3.6,2.7c4.6,16.1,14.2,52.4,15.4,58.3h0.2
			c-0.5-10.4-0.6-21.2-0.6-33.8V25.1c0-2.1,1.7-3.8,3.8-3.8h0.2c2.1,0,3.8,1.7,3.8,3.8v69.6c0,2.1-1.7,3.8-3.8,3.8h-2.8
			c-1.7,0-3.2-1.1-3.6-2.8c-4.6-16.5-14.5-54.5-15.8-60.3h-0.1c0.5,9.3,0.7,21.6,0.7,35.5v23.8c0,2.1-1.7,3.8-3.8,3.8h-0.2
			C72.8,98.5,71.1,96.8,71.1,94.7z"/>
		<path d="M147.3,95.1l-12.1-69.6c-0.4-2.3,1.4-4.4,3.7-4.4h1.1c1.9,0,3.5,1.4,3.7,3.2l4.7,31.4c1.6,10.8,3.8,24,4.5,32h0.2
			c0.6-7.7,3-21,4.5-31.7c0,0,0.7-5.7,2.3-15.3c1.5-9,1.9-10.6,2.3-11.6c1.4-4.6,2.4-8.1,6.4-15c2.8-4.8,5.2-7.1,7.6-10
			c0.7-0.9,4.7-5,9.2-8.6c7.4-6,13.1-7.2,22.9-10.4c8.4-2.7,33.4-5,45-5.7c8.6-0.5,14.9-0.7,20.1-1c3.4-0.2,7-0.2,10.1-0.2
			c0.9,0,1.1,1.4,0.2,1.6c-3.4,0.8-7.5,1.7-11.4,2.2c-16.9,2-46.5,4.9-58,8.1c-11.2,3.2-18.7,6.1-23.4,10
			c-4.7,3.8-7.8,7.1-12.2,12.8c-4.1,5.3-7.5,13.9-9.4,23.1c-1.9,9.2-7.4,41.7-10.5,59.1c-0.3,1.8-1.9,3.1-3.7,3.1l-3.9,0
			C149.1,98.3,147.6,96.9,147.3,95.1z"/>
		<path class="st0" d="M222.8,61.1h-9.8c-2.1,0-3.8,1.7-3.8,3.8v22.3c0,2.1,1.7,3.8,3.8,3.8h11.5c2.3,0,4.1,2,3.7,4.3v0
			c-0.3,1.9-1.9,3.2-3.7,3.2h-19.7c-2.1,0-3.8-1.7-3.8-3.8V25.1c0-2.1,1.7-3.8,3.8-3.8h19c2.1,0,3.8,1.7,3.8,3.8v0.1
			c0,2.1-1.7,3.8-3.8,3.8h-10.7c-2.1,0-3.8,1.7-3.8,3.8v17.1c0,2.1,1.7,3.8,3.8,3.8h9.8c2.1,0,3.8,1.7,3.8,3.8v0
			C226.6,59.4,224.9,61.1,222.8,61.1z"/>
		<path class="st0" d="M258.6,94.7V25.1c0-2.1,1.7-3.8,3.8-3.8h3.2c1.7,0,3.2,1.1,3.6,2.7c4.6,16.1,14.2,52.4,15.4,58.3h0.2
			c-0.5-10.4-0.6-21.2-0.6-33.8V25.1c0-2.1,1.7-3.8,3.8-3.8h0.2c2.1,0,3.8,1.7,3.8,3.8v69.6c0,2.1-1.7,3.8-3.8,3.8h-2.8
			c-1.7,0-3.2-1.1-3.6-2.8c-4.6-16.5-14.5-54.5-15.8-60.3h-0.1c0.5,9.3,0.7,21.6,0.7,35.5v23.8c0,2.1-1.7,3.8-3.8,3.8h-0.2
			C260.3,98.5,258.6,96.8,258.6,94.7z"/>
		<path class="st0" d="M334.6,25.1v69.6c0,2.1-1.7,3.8-3.8,3.8h-0.7c-2.1,0-3.8-1.7-3.8-3.8V25.1c0-2.1,1.7-3.8,3.8-3.8h0.7
			C332.9,21.3,334.6,23,334.6,25.1z"/>
		<path class="st0" d="M400.8,40.3v38.9c0,13.6-5.6,20.3-17.1,20.3c-11.9,0-16.3-7.6-16.3-20.2v-39c0-13.1,6-20,16.9-20
			C395.6,20.3,400.8,28.1,400.8,40.3z M375.7,39.9v40c0,8.7,3.2,12.1,8.3,12.1c5.5,0,8.3-3.3,8.3-12.5V39.9c0-8.2-2.8-12.1-8.4-12.1
			C378.4,27.8,375.7,31.5,375.7,39.9z"/>
	</g>
</g>
</svg>
