<svg version="1" xmlns="http://www.w3.org/2000/svg" width="682.667" height="682.667" viewBox="0 0 512.000000 512.000000"><path d="M312 143v19h9c5 0 9 .3 9 .7.1 2.3-25.5 129.3-26 129.3-.4 0-11.4-21.7-24.4-48.3l-23.8-48.2-24.2 48.2C218.4 270.3 207.3 292 207 292c-.4 0-18.2-88.2-25.8-127.8-.4-2.2-.2-2.2 8.7-2.2h9.1v-37h-75v37h9.5c9 0 9.5.1 10 2.2.3 1.3 8.6 42.6 18.5 91.8 9.9 49.2 18.2 90.5 18.5 91.7.5 2.3.4 2.3-9 2.3H162v37h75v-36.9l-9.4-.3-9.4-.3L237 312l18.8-37.5 18.6 37.3c10.2 20.4 18.6 37.4 18.6 37.7 0 .3-4.3.5-9.5.5H274v37h75v-37h-9c-7.1 0-9-.3-9-1.4 0-.8 8.3-42.7 18.5-93.2 10.2-50.4 18.5-92.1 18.5-92.6 0-.4 4.3-.8 9.5-.8h9.5v-38h-75v19z"/></svg>